<svg xmlns="http://www.w3.org/2000/svg" xmlns:xlink="http://www.w3.org/1999/xlink" version="1.1" x="0px" y="0px" viewBox="0 0 32 40" enable-background="new 0 0 32 32" xml:space="preserve"><g display="none"><circle display="inline" cx="16" cy="16" r="14"/></g><g display="none"><path display="inline" d="M22,2c0-1.105-0.894-2-2-2c-1.105,0-2,0.896-2,2v6h4V2z M14,2c0-1.105-0.894-2-2-2c-1.105,0-2,0.896-2,2   v6h4V2z M22,10H10c-1.1,0-1.851,0.888-1.672,1.973l1.344,8.055C9.852,21.112,10.9,22,12,22c0,1.104,0.895,2,2,2v8h4v-8   c1.106,0,2-0.896,2-2c1.1,0,2.149-0.888,2.328-1.973l1.344-8.055C23.852,10.888,23.1,10,22,10z"/></g><g display="none"><path display="inline" fill-rule="evenodd" clip-rule="evenodd" d="M26,4V0H6v4l8,10v16H8v2h16v-2h-6V14L26,4z M12,6L8,2h16l-4,4   H12z"/></g><g><path fill-rule="evenodd" clip-rule="evenodd" d="M4,28h24V4H4V28z M6,6h20v20H6V6z M2,2h6V0H0v8h2V2z M13.715,20.572L12,18l-4,6   h16l-6-12L13.715,20.572z M24,0v2h6v6h2V0H24z M2,24H0v8h8v-2H2V24z M30,30h-6v2h8v-8h-2V30z M11,14c1.656,0,3-1.344,3-3   c0-1.656-1.344-3-3-3c-1.656,0-3,1.344-3,3C8,12.656,9.344,14,11,14z"/></g><text x="0" y="47" fill="#000000" font-size="5px" font-weight="bold" font-family="'Helvetica Neue', Helvetica, Arial-Unicode, Arial, Sans-serif">Created by Noe Araujo</text><text x="0" y="52" fill="#000000" font-size="5px" font-weight="bold" font-family="'Helvetica Neue', Helvetica, Arial-Unicode, Arial, Sans-serif">from the Noun Project</text></svg>