<svg xmlns="http://www.w3.org/2000/svg" xmlns:xlink="http://www.w3.org/1999/xlink" version="1.1" x="0px" y="0px" viewBox="0 0 48 60" enable-background="new 0 0 48 48" xml:space="preserve"><g><g><rect x="0.5" y="33.3" width="10" height="2"/></g><g><rect x="18.3" y="33.3" width="10" height="2"/></g><g><path d="M14.4,40.9c-2.8,0-5.1-2.3-5.1-5.1c0-2.8,2.3-5.1,5.1-5.1c2.8,0,5.1,2.3,5.1,5.1C19.6,38.6,17.3,40.9,14.4,40.9z     M14.4,32.7c-1.7,0-3.1,1.4-3.1,3.1c0,1.7,1.4,3.1,3.1,3.1s3.1-1.4,3.1-3.1C17.5,34,16.1,32.7,14.4,32.7z"/></g><g><path d="M36.4,40.9c-2.8,0-5.1-2.3-5.1-5.1c0-2.8,2.3-5.1,5.1-5.1c2.8,0,5.1,2.3,5.1,5.1C41.5,38.6,39.2,40.9,36.4,40.9z     M36.4,32.7c-1.7,0-3.1,1.4-3.1,3.1c0,1.7,1.4,3.1,3.1,3.1s3.1-1.4,3.1-3.1C39.5,34,38.1,32.7,36.4,32.7z"/></g><g><polygon points="45.4,35.3 40.3,35.3 40.3,33.3 43.4,33.3 43.4,21.5 35.9,12.4 29.4,12.4 29.4,33.3 32.3,33.3 32.3,35.3     27.3,35.3 27.3,10.4 36.9,10.4 45.4,20.7   "/></g><g><path d="M25.3,29.4H2V7.1h23.3V29.4z M4.1,27.3h19.2V9.1H4.1V27.3z"/></g><g><path d="M41.1,21.6H31v-7h4.5L41.1,21.6z M33,19.6h3.8l-2.3-2.9H33V19.6z"/></g><g><rect x="44.4" y="33.3" width="3.1" height="2"/></g><g><path d="M14.3,24c-0.1,0-0.3,0-0.4-0.1c-0.4-0.2-0.6-0.5-0.6-0.9v-1.9H7.2c-0.6,0-1-0.5-1-1v-3.8c0-0.6,0.5-1,1-1h6.1v-1.9    c0-0.4,0.2-0.8,0.6-0.9c0.4-0.2,0.8-0.1,1.1,0.1l5.8,4.8c0.2,0.2,0.4,0.5,0.4,0.8c0,0.3-0.1,0.6-0.4,0.8L15,23.8    C14.8,24,14.5,24,14.3,24z M8.3,19.1h6.1c0.6,0,1,0.5,1,1v0.7l3.2-2.6l-3.2-2.6v0.7c0,0.6-0.5,1-1,1H8.3V19.1z"/></g></g></svg>
